<svg xmlns="http://www.w3.org/2000/svg" width="1200" height="630" viewBox="0 0 1200 630" role="img" aria-labelledby="title desc">
  <title id="title">Desert sunrise abstract illustration</title>
  <desc id="desc">Minimalist gradient illustration inspired by Arizona desert light.</desc>
  <defs>
    <linearGradient id="sky" x1="0" y1="0" x2="1" y2="1">
      <stop offset="0%" stop-color="#F5F3EF"/>
      <stop offset="50%" stop-color="#FFFFFF"/>
      <stop offset="100%" stop-color="#E6A445"/>
    </linearGradient>
    <linearGradient id="ground" x1="0" y1="0" x2="1" y2="0">
      <stop offset="0%" stop-color="#006E7F" stop-opacity="0.65"/>
      <stop offset="100%" stop-color="#2A2A2A" stop-opacity="0.75"/>
    </linearGradient>
  </defs>
  <rect width="1200" height="630" fill="url(#sky)"/>
  <circle cx="900" cy="150" r="140" fill="#E6A445" opacity="0.25"/>
  <path d="M0 420 Q200 360 360 400 T720 380 T1200 420 V630 H0 Z" fill="url(#ground)" opacity="0.35"/>
  <path d="M0 470 Q180 430 360 460 T720 450 T1200 470 V630 H0 Z" fill="#2A2A2A" opacity="0.45"/>
  <path d="M220 510 L280 380 L330 430 L360 370 L410 480 L460 420 L520 520 Z" fill="#FFFFFF" opacity="0.12"/>
  <path d="M740 500 L820 350 L880 400 L910 360 L980 480 L1030 430 L1100 520 Z" fill="#FFFFFF" opacity="0.12"/>
</svg>


